HIERARCHY
ROOT Hips
{
	OFFSET 0.000000 0.000000 0.000000
	CHANNELS 6 Xposition Yposition Zposition Xrotation Yrotation Zrotation
	JOINT LeftUpLeg_virtual
	{
		OFFSET 0.000000 0.000000 0.000000
		CHANNELS 3 Xrotation Yrotation Zrotation
		JOINT LeftUpLeg
		{
			OFFSET 10.205400 -3.823500 0.155100
			CHANNELS 3 Xrotation Yrotation Zrotation
			JOINT LeftLeg
			{
				OFFSET 0.708757 -12.982077 0.567790
				CHANNELS 3 Xrotation Yrotation Zrotation
				JOINT LeftFoot
				{
					OFFSET -0.708756 -10.717838 -2.184338
					CHANNELS 3 Xrotation Yrotation Zrotation
					JOINT LeftToeBase
					{
						OFFSET 0.108149 -7.191104 7.560241
						CHANNELS 3 Xrotation Yrotation Zrotation
						JOINT LeftToe_End
						{
							OFFSET 0.070230 0.081724 4.490308
							CHANNELS 3 Xrotation Yrotation Zrotation
							End Site
							{
								OFFSET 0 0 0
							}
						}
					}
				}
			}
		}
	}
	JOINT RightUpLeg_virtual
	{
		OFFSET 0.000000 0.000000 0.000000
		CHANNELS 3 Xrotation Yrotation Zrotation
		JOINT RightUpLeg
		{
			OFFSET -10.205400 -3.823500 0.005500
			CHANNELS 3 Xrotation Yrotation Zrotation
			JOINT RightLeg
			{
				OFFSET -0.708756 -12.982134 0.610632
				CHANNELS 3 Xrotation Yrotation Zrotation
				JOINT RightFoot
				{
					OFFSET 0.708754 -10.717769 -1.945823
					CHANNELS 3 Xrotation Yrotation Zrotation
					JOINT RightToeBase
					{
						OFFSET -0.108140 -7.191069 7.372968
						CHANNELS 3 Xrotation Yrotation Zrotation
						JOINT RightToe_End
						{
							OFFSET -0.070227 0.081735 4.479403
							CHANNELS 3 Xrotation Yrotation Zrotation
							End Site
							{
								OFFSET 0 0 0
							}
						}
					}
				}
			}
		}
	}
	JOINT Spine_virtual
	{
		OFFSET 0.000000 0.000000 0.000000
		CHANNELS 3 Xrotation Yrotation Zrotation
		JOINT Spine
		{
			OFFSET 0.000000 6.876099 0.125700
			CHANNELS 3 Xrotation Yrotation Zrotation
			JOINT Spine1
			{
				OFFSET 0.000000 5.730043 0.104720
				CHANNELS 3 Xrotation Yrotation Zrotation
				JOINT Spine1_split
				{
					OFFSET 0.000000 5.730043 0.104720
					CHANNELS 3 Xrotation Yrotation Zrotation
					JOINT Spine2
					{
						OFFSET 0.000000 5.730043 0.104720
						CHANNELS 3 Xrotation Yrotation Zrotation
						JOINT Neck_virtual
						{
							OFFSET 0.000000 0.000000 0.000000
							CHANNELS 3 Xrotation Yrotation Zrotation
							JOINT Neck
							{
								OFFSET 0.000000 10.314075 0.188496
								CHANNELS 3 Xrotation Yrotation Zrotation
								JOINT Head
								{
									OFFSET 0.000000 7.643700 -2.377400
									CHANNELS 3 Xrotation Yrotation Zrotation
									JOINT HeadTop_End
									{
										OFFSET 0.000000 43.788605 -13.619600
										CHANNELS 3 Xrotation Yrotation Zrotation
										End Site
										{
											OFFSET 0 0 0
										}
									}
								}
							}
						}
						JOINT LeftShoulder_virtual
						{
							OFFSET 0.000000 0.000000 0.000000
							CHANNELS 3 Xrotation Yrotation Zrotation
							JOINT LeftShoulder
							{
								OFFSET 2.196100 4.412489 0.087492
								CHANNELS 3 Xrotation Yrotation Zrotation
								JOINT LeftShoulder_split
								{
									OFFSET 2.196100 4.412489 0.087492
									CHANNELS 3 Xrotation Yrotation Zrotation
									JOINT LeftArm
									{
										OFFSET 8.771219 -2.981674 -0.026999
										CHANNELS 3 Xrotation Yrotation Zrotation
										JOINT LeftForeArm
										{
											OFFSET 8.512804 0.000000 -0.000000
											CHANNELS 3 Xrotation Yrotation Zrotation
											JOINT LeftHand
											{
												OFFSET 18.484802 0.000000 -0.000000
												CHANNELS 3 Xrotation Yrotation Zrotation
												End Site
												{
													OFFSET 0 0 0
												}
											}
										}
									}
								}
							}
						}
						JOINT RightShoulder_virtual
						{
							OFFSET 0.000000 0.000000 0.000000
							CHANNELS 3 Xrotation Yrotation Zrotation
							JOINT RightShoulder
							{
								OFFSET -2.196100 4.412496 0.070690
								CHANNELS 3 Xrotation Yrotation Zrotation
								JOINT RightShoulder_split
								{
									OFFSET -2.196100 4.412496 0.070690
									CHANNELS 3 Xrotation Yrotation Zrotation
									JOINT RightArm
									{
										OFFSET -8.771282 -2.981682 -0.094208
										CHANNELS 3 Xrotation Yrotation Zrotation
										JOINT RightForeArm
										{
											OFFSET -8.494598 0.000000 0.000000
											CHANNELS 3 Xrotation Yrotation Zrotation
											JOINT RightHand
											{
												OFFSET -18.483803 0.000000 0.000001
												CHANNELS 3 Xrotation Yrotation Zrotation
												End Site
												{
													OFFSET 0 0 0
												}
											}
										}
									}
								}
							}
						}
					}
				}
			}
		}
	}
}
MOTION
Frames: 10
Frame Time: 0.03333333
0.105788 28.529917 1.001438 0.000000 0.000000 0.000000 -5.290577 -52.446922 0.768605 -30.440633 7.339720 17.985727 59.213061 -5.135440 4.179244 -31.579875 -5.971341 -18.531193 -1.458962 -0.094081 -0.924868 0.000000 0.000000 0.000000 -6.465134 -47.098433 1.413034 -17.145317 -10.755665 -35.065648 58.256814 -13.896931 -14.654348 -38.272326 -10.263334 25.730665 1.285419 2.428389 0.276091 0.000000 0.000000 0.000000 -4.295823 -50.739986 1.764468 10.174584 6.925621 -1.876173 1.934512 1.097522 -0.715084 0.300839 -0.663479 0.787309 0.000000 0.000000 0.000000 2.865834 1.154491 -0.642082 -0.891160 13.259108 3.391459 8.800165 20.280905 -4.132527 0.000000 0.000000 0.000000 3.704344 0.984769 -0.781867 1.625722 2.876967 -12.049709 -2.713082 0.761213 -0.225358 -52.055334 2.212334 -50.086873 -178.660782 -74.282761 -178.559026 0.000000 0.000000 0.000000 3.915120 1.279476 -0.597594 3.473138 11.565483 -6.050078 -2.469257 2.084219 0.449384 -49.417071 27.353400 87.247347 -173.374353 71.765631 171.188883 0.000000 0.000000 0.000000 
0.016165 28.651266 1.185913 0.000000 0.000000 0.000000 -5.033724 -52.198409 1.012998 -30.233098 7.816655 17.850841 58.426176 -5.440767 4.168624 -31.902325 -6.294517 -18.886872 -1.719190 -0.082146 -0.610706 0.000000 0.000000 0.000000 -6.202127 -47.407906 1.661321 -17.062745 -11.165782 -35.548788 58.039888 -13.642674 -14.381884 -37.337038 -8.916972 23.372247 1.253622 2.486944 1.246968 0.000000 0.000000 0.000000 -3.179819 -50.243315 2.564621 9.944490 7.063538 -1.964019 2.047292 1.164299 -0.802201 0.477303 -0.658741 0.697485 0.000000 0.000000 0.000000 2.885978 1.225800 -0.776824 -0.787335 13.220294 3.201694 9.069993 20.207453 -4.036719 0.000000 0.000000 0.000000 3.890349 1.006928 -0.848057 1.555820 2.314150 -11.474226 -2.886518 0.800572 -0.269070 -52.679244 2.763569 -49.926077 -179.143035 -75.127846 -178.896301 0.000000 0.000000 0.000000 4.061172 1.326540 -0.718628 3.550041 11.831869 -5.732145 -2.952804 2.772791 0.718543 -49.966560 27.876615 87.302590 -173.928363 72.047233 171.938715 0.000000 0.000000 0.000000 
-0.135989 28.918589 1.333450 0.000000 0.000000 0.000000 -4.412612 -51.281702 1.666547 -29.708458 8.082563 17.602400 57.062450 -5.881107 4.199820 -31.982996 -7.168507 -19.363117 -2.129151 -0.069502 -0.022726 0.000000 0.000000 0.000000 -5.614687 -47.374165 2.383859 -18.198351 -10.330194 -37.067300 58.826193 -12.463744 -13.865728 -32.915733 -6.532022 22.299990 -2.669199 2.208521 3.353060 0.000000 0.000000 0.000000 -1.843682 -48.983228 3.648254 9.758200 7.326668 -2.222941 2.113250 1.381973 -0.979513 0.479141 -0.720457 0.634771 0.000000 0.000000 0.000000 2.842984 1.401478 -0.992073 -0.507588 13.130794 2.741303 9.389569 19.674281 -3.688208 0.000000 0.000000 0.000000 3.856330 1.169021 -1.040284 1.475578 1.247289 -10.823888 -2.730571 0.535307 -0.542984 -54.786774 3.397050 -48.660409 -179.712154 -75.127846 -179.253534 0.000000 0.000000 0.000000 4.107433 1.467799 -0.939647 3.649831 12.352459 -5.424779 -3.038188 2.545565 0.777816 -51.670402 27.655132 87.316469 -174.257319 72.723456 172.544649 0.000000 0.000000 0.000000 
-0.351682 29.268620 1.439379 0.000000 0.000000 0.000000 -3.564767 -49.743622 2.485288 -29.036872 8.087257 17.406807 55.243376 -6.228995 4.199257 -31.858004 -8.399834 -19.650647 -2.419870 -0.049433 0.575459 0.000000 0.000000 0.000000 -4.707923 -46.614754 3.339506 -19.744147 -8.589578 -38.916191 59.804535 -10.649719 -13.424723 -27.375758 -3.817821 21.624545 -7.939945 1.447879 5.931267 0.000000 0.000000 0.000000 -0.672201 -47.167121 4.632598 9.639820 7.593780 -2.544778 2.104981 1.646062 -1.148771 0.252539 -0.845870 0.713953 0.000000 0.000000 0.000000 2.781501 1.608340 -1.170855 -0.138155 13.038919 2.126114 9.665806 18.798887 -3.132570 0.000000 0.000000 0.000000 3.621489 1.395378 -1.237772 1.421233 -0.162366 -10.143266 -2.461590 -0.001215 -0.991842 -58.052626 4.043520 -46.342909 179.957603 -74.313565 -179.338583 0.000000 0.000000 0.000000 4.007500 1.640549 -1.143325 3.748727 13.030163 -5.263405 -2.997804 1.523770 0.685408 -54.621023 26.605132 87.353550 -174.346835 73.944154 172.890256 0.000000 0.000000 0.000000 
-0.588916 29.633293 1.496822 0.000000 0.000000 0.000000 -2.680051 -47.749658 3.184911 -28.491376 7.947679 17.443248 53.149134 -6.316026 4.197089 -31.728971 -9.739743 -19.529198 -2.454960 -0.012691 0.904949 0.000000 0.000000 0.000000 -3.856130 -45.226296 4.051020 -21.330969 -6.688485 -40.351330 60.702357 -9.188043 -12.924851 -22.754432 -1.743885 20.034850 -10.382873 0.591779 8.132761 0.000000 0.000000 0.000000 0.278043 -45.094784 5.281307 9.561557 7.783583 -2.754335 2.026402 1.846386 -1.211565 0.073685 -0.838882 0.786060 0.000000 0.000000 0.000000 2.705456 1.758233 -1.202558 0.194077 12.921759 1.559609 9.822417 17.800117 -2.439435 0.000000 0.000000 0.000000 3.262938 1.597489 -1.311794 1.415434 -1.765154 -9.521084 -2.344182 -0.487121 -1.408784 -62.130242 4.472418 -43.326041 179.795687 -73.004784 -179.293012 0.000000 0.000000 0.000000 3.771985 1.767019 -1.208394 3.841789 13.809086 -5.299036 -3.018639 0.409229 0.419079 -58.770308 24.793397 87.508561 -173.971147 75.793762 172.659464 0.000000 0.000000 0.000000 
-0.870041 29.937862 1.567074 0.000000 0.000000 0.000000 -1.968331 -45.527886 3.534034 -28.060425 7.814386 17.831677 51.168140 -6.296163 4.321791 -31.533665 -10.933632 -19.369286 -2.364624 0.047398 0.861529 0.000000 0.000000 0.000000 -3.464860 -43.379286 4.250039 -22.776521 -5.390522 -41.091801 61.437060 -8.559733 -12.088794 -19.721987 -1.182138 17.577418 -8.663825 0.113428 9.370401 0.000000 0.000000 0.000000 0.844974 -42.979392 5.452985 9.467776 7.829856 -2.753112 1.903783 1.886852 -1.129030 0.240530 -0.717197 0.870875 0.000000 0.000000 0.000000 2.637516 1.781415 -1.054423 0.397791 12.791000 1.246969 9.872524 16.886007 -1.711246 0.000000 0.000000 0.000000 2.871093 1.707240 -1.208382 1.451233 -3.498662 -9.059585 -2.237109 -0.859849 -1.735094 -66.284985 4.459544 -40.153074 179.737029 -71.729711 -179.211788 0.000000 0.000000 0.000000 3.478365 1.804696 -1.083765 3.926455 14.547849 -5.532181 -3.106445 -0.257275 -0.084592 -63.667123 22.505040 87.960809 -172.859643 78.261974 171.557632 0.000000 0.000000 0.000000 
-1.257860 30.127226 1.642672 0.000000 0.000000 0.000000 -1.558014 -43.378719 3.485254 -27.774735 7.825799 18.640935 49.639803 -6.220592 4.558715 -31.297686 -11.810324 -19.516798 -2.267618 0.115574 0.447277 0.000000 0.000000 0.000000 -3.516745 -41.255777 3.948392 -23.948397 -5.062263 -41.304189 61.758010 -8.527627 -10.991601 -18.272172 -2.216352 15.634950 -5.488192 0.007278 9.137513 0.000000 0.000000 0.000000 1.119690 -41.042361 5.210228 9.311704 7.796085 -2.506427 1.781509 1.770722 -0.937149 0.518943 -0.483693 0.926252 0.000000 0.000000 0.000000 2.578056 1.683334 -0.772844 0.432646 12.664145 1.267131 9.863547 16.197245 -1.008589 0.000000 0.000000 0.000000 2.563146 1.691076 -0.963342 1.537707 -5.158932 -8.848916 -2.000901 -1.100634 -1.845547 -69.685736 3.957914 -37.474311 179.529583 -70.975276 -179.413906 0.000000 0.000000 0.000000 3.175417 1.732786 -0.834160 4.001613 15.096265 -5.947803 -3.274195 -0.415273 -0.528520 -68.505834 20.224638 88.622551 -170.404026 81.085246 169.033931 0.000000 0.000000 0.000000 
-1.738511 30.192032 1.577347 0.000000 0.000000 0.000000 -1.571472 -41.387289 3.106285 -27.689910 8.102470 19.829487 48.888500 -6.242503 4.945153 -31.043780 -12.309782 -20.426217 -2.457062 0.186962 -0.104323 0.000000 0.000000 0.000000 -4.007861 -39.398526 3.299249 -24.397950 -5.531529 -41.049044 61.055211 -8.817600 -10.119801 -18.105460 -4.420740 14.976272 -3.314563 0.081674 7.329735 0.000000 0.000000 0.000000 1.158622 -39.621890 4.744626 9.107684 7.725220 -2.034182 1.690452 1.563627 -0.742192 0.730979 -0.270967 0.998995 0.000000 0.000000 0.000000 2.533263 1.508255 -0.489810 0.305370 12.562472 1.600772 9.795658 15.886562 -0.380853 0.000000 0.000000 0.000000 2.370617 1.582456 -0.699232 1.639103 -6.627812 -9.005145 -1.902419 -1.224863 -1.800638 -71.659640 3.043715 -35.789911 179.119785 -71.127575 -179.930761 0.000000 0.000000 0.000000 2.956883 1.585058 -0.589264 4.049495 15.307132 -6.484136 -3.359508 -0.193701 -0.773549 -72.308317 18.404754 89.402375 -165.353320 83.861090 163.897315 0.000000 0.000000 0.000000 
-2.302905 30.101261 1.426863 0.000000 0.000000 0.000000 -2.070440 -39.752060 2.588469 -27.617242 8.663094 21.259751 48.934207 -6.418535 5.470257 -31.081708 -12.431195 -22.083805 -2.886536 0.206626 -0.474738 0.000000 0.000000 0.000000 -4.747875 -38.147781 2.635705 -23.786607 -6.338174 -40.569217 59.294204 -9.197973 -9.746887 -18.766288 -7.128417 15.200077 -1.575367 0.348806 4.699778 0.000000 0.000000 0.000000 0.875707 -38.859678 4.286458 8.912643 7.668976 -1.499624 1.657187 1.353345 -0.661619 0.811363 -0.346464 0.937524 0.000000 0.000000 0.000000 2.516829 1.334532 -0.347164 0.069006 12.510130 2.088527 9.719609 15.943834 0.123354 0.000000 0.000000 0.000000 2.321353 1.439303 -0.558601 1.707622 -7.728686 -9.537511 -1.900311 -1.427419 -1.722430 -71.963399 2.072164 -35.105198 178.652409 -72.233854 179.462155 0.000000 0.000000 0.000000 2.878215 1.425991 -0.482840 4.059566 15.103372 -7.119269 -3.300727 0.158657 -0.825212 -74.231240 17.414546 90.064316 -154.909797 86.220633 153.400585 0.000000 0.000000 0.000000 
-2.937144 29.834057 1.176826 0.000000 0.000000 0.000000 -2.835037 -38.770759 2.236581 -27.445092 9.396374 22.712869 49.574483 -6.758746 6.099520 -31.664754 -12.211100 -24.406527 -3.457819 0.151284 -0.394068 0.000000 0.000000 0.000000 -5.625813 -37.646097 2.193017 -22.583095 -6.860283 -40.370205 56.928387 -9.424047 -9.907173 -19.683555 -9.710239 16.150261 0.427426 0.714356 2.215983 0.000000 0.000000 0.000000 0.273603 -38.765169 3.964760 8.844373 7.707343 -1.082259 1.686022 1.224469 -0.761486 0.690259 -0.671815 0.829290 0.000000 0.000000 0.000000 2.525507 1.245650 -0.420051 -0.216425 12.536151 2.521146 9.691553 16.211324 0.532784 0.000000 0.000000 0.000000 2.418780 1.324659 -0.619966 1.729807 -8.260467 -10.382670 -1.836154 -1.543405 -1.718390 -71.128046 1.285304 -35.250815 178.117851 -73.938287 178.779969 0.000000 0.000000 0.000000 2.943505 1.312536 -0.579136 4.009444 14.612746 -7.825604 -3.117995 0.297669 -0.459863 -74.043888 17.428840 90.370793 -130.695984 87.864667 129.147157 0.000000 0.000000 0.000000 
